<svg width="30" height="26" viewBox="0 0 30 26" fill="none" xmlns="http://www.w3.org/2000/svg">
<path d="M21.9514 10L16.1146 1.25335C15.99 1.07675 15.824 0.933372 15.6312 0.835754C15.4384 0.738135 15.2246 0.689245 15.0086 0.693354C14.5821 0.693354 14.1557 0.880021 13.9025 1.26669L8.06579 10H1.68269C0.949763 10 0.350098 10.6 0.350098 11.3334C0.350098 11.4534 0.363423 11.5734 0.403401 11.6934L3.78818 24.0534C4.09467 25.1734 5.12077 26 6.34675 26H23.6704C24.8964 26 25.9225 25.1734 26.2423 24.0534L29.6271 11.6934L29.6671 11.3334C29.6671 10.6 29.0674 10 28.3345 10H21.9514ZM11.0108 10L15.0086 4.13335L19.0063 10H11.0108ZM15.0086 20.6667C13.5427 20.6667 12.3434 19.4667 12.3434 18C12.3434 16.5334 13.5427 15.3334 15.0086 15.3334C16.4744 15.3334 17.6738 16.5334 17.6738 18C17.6738 19.4667 16.4744 20.6667 15.0086 20.6667Z" fill="white"/>
</svg>
